999
dxflib 2.2.0.0
  0
SECTION
  2
HEADER
  9
$ACADVER
  1
AC1015
  9
$HANDSEED
  5
FFFF
  9
$SPLINESEGS
 70
8
  9
$DIMEXE
 40
10.0
  9
$PSVPSCALE
 40
0.223531121120338
  9
$DIMLUNIT
 70
2
  9
$GRIDMODE
 70
1
  9
$INSUNITS
 70
0
  9
$DIMADEC
 70
2
  9
$DIMASZ
 40
10.0
  9
$DIMGAP
 40
10.0
  9
$DIMTXT
 40
15.0
  9
$GRIDUNIT
 10
0.0
 20
0.0
  9
$DIMEXO
 40
5.0
  9
$LUPREC
 70
4
  9
$PINSBASE
 10
44.9119525035378899
 20
118.691281168620705
 30
0.0
  9
$DIMAUNIT
 70
0
  9
$AUPREC
 70
2
  9
$PLIMMIN
 10
0.0
 20
0.0
  9
$LUNITS
 70
2
  9
$PLIMMAX
 10
297.0
 20
210.0
  9
$DIMSTYLE
  2
Standard
  9
$AUNITS
 70
0
  0
ENDSEC
  0
SECTION
  2
TABLES
  0
TABLE
  2
VPORT
  5
8
100
AcDbSymbolTable
 70
1
  0
VPORT
  5
30
100
AcDbSymbolTableRecord
100
AcDbViewportTableRecord
  2
*Active
 70
0
 10
0.0
 20
0.0
 11
1.0
 21
1.0
 12
286.3055555555554861
 22
148.5
 13
0.0
 23
0.0
 14
10.0
 24
10.0
 15
10.0
 25
10.0
 16
0.0
 26
0.0
 36
1.0
 17
0.0
 27
0.0
 37
0.0
 40
297.0
 41
1.92798353909465
 42
50.0
 43
0.0
 44
0.0
 50
0.0
 51
0.0
 71
0
 72
100
 73
1
 74
3
 75
1
 76
1
 77
0
 78
0
281
0
 65
1
110
0.0
120
0.0
130
0.0
111
1.0
121
0.0
131
0.0
112
0.0
122
1.0
132
0.0
 79
0
146
0.0
  0
ENDTAB
  0
TABLE
  2
LTYPE
  5
5
100
AcDbSymbolTable
 70
21
  0
LTYPE
  5
14
100
AcDbSymbolTableRecord
100
AcDbLinetypeTableRecord
  2
ByBlock
 70
0
  3

 72
65
 73
0
 40
0.0
  0
LTYPE
  5
15
100
AcDbSymbolTableRecord
100
AcDbLinetypeTableRecord
  2
ByLayer
 70
0
  3

 72
65
 73
0
 40
0.0
  0
LTYPE
  5
16
100
AcDbSymbolTableRecord
100
AcDbLinetypeTableRecord
  2
CONTINUOUS
 70
0
  3
Solid line
 72
65
 73
0
 40
0.0
  0
LTYPE
  5
31
100
AcDbSymbolTableRecord
100
AcDbLinetypeTableRecord
  2
DOT
 70
0
  3
Dot . . . . . . . . . . . . . . . . . . . . . .
 72
65
 73
2
 40
6.3499999999999996
 49
0.0
 74
0
 49
-6.3499999999999996
 74
0
  0
LTYPE
  5
32
100
AcDbSymbolTableRecord
100
AcDbLinetypeTableRecord
  2
DOT2
 70
0
  3
Dot (.5x) .....................................
 72
65
 73
2
 40
3.1749999999999998
 49
0.0
 74
0
 49
-3.1749999999999998
 74
0
  0
LTYPE
  5
33
100
AcDbSymbolTableRecord
100
AcDbLinetypeTableRecord
  2
DOTX2
 70
0
  3
Dot (2x) .  .  .  .  .  .  .  .  .  .  .  .  .
 72
65
 73
2
 40
12.6999999999999993
 49
0.0
 74
0
 49
-12.6999999999999993
 74
0
  0
LTYPE
  5
34
100
AcDbSymbolTableRecord
100
AcDbLinetypeTableRecord
  2
DASHED
 70
0
  3
Dashed __ __ __ __ __ __ __ __ __ __ __ __ __ _
 72
65
 73
2
 40
19.0500000000000007
 49
12.6999999999999993
 74
0
 49
-6.3499999999999996
 74
0
  0
LTYPE
  5
35
100
AcDbSymbolTableRecord
100
AcDbLinetypeTableRecord
  2
DASHED2
 70
0
  3
Dashed (.5x) _ _ _ _ _ _ _ _ _ _ _ _ _ _ _ _ _
 72
65
 73
2
 40
9.5250000000000004
 49
6.3499999999999996
 74
0
 49
-3.1749999999999998
 74
0
  0
LTYPE
  5
36
100
AcDbSymbolTableRecord
100
AcDbLinetypeTableRecord
  2
DASHEDX2
 70
0
  3
Dashed (2x) ____  ____  ____  ____  ____  ___
 72
65
 73
2
 40
38.1000000000000014
 49
25.3999999999999986
 74
0
 49
-12.6999999999999993
 74
0
  0
LTYPE
  5
37
100
AcDbSymbolTableRecord
100
AcDbLinetypeTableRecord
  2
DASHDOT
 70
0
  3
Dash dot __ . __ . __ . __ . __ . __ . __ . __
 72
65
 73
4
 40
25.3999999999999986
 49
12.6999999999999993
 74
0
 49
-6.3499999999999996
 74
0
 49
0.0
 74
0
 49
-6.3499999999999996
 74
0
  0
LTYPE
  5
38
100
AcDbSymbolTableRecord
100
AcDbLinetypeTableRecord
  2
DASHDOT2
 70
0
  3
Dash dot (.5x) _._._._._._._._._._._._._._._.
 72
65
 73
4
 40
12.6999999999999993
 49
6.3499999999999996
 74
0
 49
-3.1749999999999998
 74
0
 49
0.0
 74
0
 49
-3.1749999999999998
 74
0
  0
LTYPE
  5
39
100
AcDbSymbolTableRecord
100
AcDbLinetypeTableRecord
  2
DASHDOTX2
 70
0
  3
Dash dot (2x) ____  .  ____  .  ____  .  ___
 72
65
 73
4
 40
50.7999999999999972
 49
25.3999999999999986
 74
0
 49
-12.6999999999999993
 74
0
 49
0.0
 74
0
 49
-12.6999999999999993
 74
0
  0
LTYPE
  5
3A
100
AcDbSymbolTableRecord
100
AcDbLinetypeTableRecord
  2
DIVIDE
 70
0
  3
Divide ____ . . ____ . . ____ . . ____ . . ____
 72
65
 73
6
 40
31.75
 49
12.6999999999999993
 74
0
 49
-6.3499999999999996
 74
0
 49
0.0
 74
0
 49
-6.3499999999999996
 74
0
 49
0.0
 74
0
 49
-6.3499999999999996
 74
0
  0
LTYPE
  5
3B
100
AcDbSymbolTableRecord
100
AcDbLinetypeTableRecord
  2
DIVIDE2
 70
0
  3
Divide (.5x) __..__..__..__..__..__..__..__.._
 72
65
 73
6
 40
15.875
 49
6.3499999999999996
 74
0
 49
-3.1749999999999998
 74
0
 49
0.0
 74
0
 49
-3.1749999999999998
 74
0
 49
0.0
 74
0
 49
-3.1749999999999998
 74
0
  0
LTYPE
  5
3C
100
AcDbSymbolTableRecord
100
AcDbLinetypeTableRecord
  2
DIVIDEX2
 70
0
  3
Divide (2x) ________  .  .  ________  .  .  _
 72
65
 73
6
 40
63.5
 49
25.3999999999999986
 74
0
 49
-12.6999999999999993
 74
0
 49
0.0
 74
0
 49
-12.6999999999999993
 74
0
 49
0.0
 74
0
 49
-12.6999999999999993
 74
0
  0
LTYPE
  5
3D
100
AcDbSymbolTableRecord
100
AcDbLinetypeTableRecord
  2
CENTER
 70
0
  3
Center ____ _ ____ _ ____ _ ____ _ ____ _ ____
 72
65
 73
4
 40
50.7999999999999972
 49
31.75
 74
0
 49
-6.3499999999999996
 74
0
 49
6.3499999999999996
 74
0
 49
-6.3499999999999996
 74
0
  0
LTYPE
  5
3E
100
AcDbSymbolTableRecord
100
AcDbLinetypeTableRecord
  2
CENTER2
 70
0
  3
Center (.5x) ___ _ ___ _ ___ _ ___ _ ___ _ ___
 72
65
 73
4
 40
28.5749999999999993
 49
19.0500000000000007
 74
0
 49
-3.1749999999999998
 74
0
 49
3.1749999999999998
 74
0
 49
-3.1749999999999998
 74
0
  0
LTYPE
  5
3F
100
AcDbSymbolTableRecord
100
AcDbLinetypeTableRecord
  2
CENTERX2
 70
0
  3
Center (2x) ________  __  ________  __  _____
 72
65
 73
4
 40
101.5999999999999943
 49
63.5
 74
0
 49
-12.6999999999999993
 74
0
 49
12.6999999999999993
 74
0
 49
-12.6999999999999993
 74
0
  0
LTYPE
  5
40
100
AcDbSymbolTableRecord
100
AcDbLinetypeTableRecord
  2
BORDER
 70
0
  3
Border __ __ . __ __ . __ __ . __ __ . __ __ .
 72
65
 73
6
 40
44.4500000000000028
 49
12.6999999999999993
 74
0
 49
-6.3499999999999996
 74
0
 49
12.6999999999999993
 74
0
 49
-6.3499999999999996
 74
0
 49
0.0
 74
0
 49
-6.3499999999999996
 74
0
  0
LTYPE
  5
41
100
AcDbSymbolTableRecord
100
AcDbLinetypeTableRecord
  2
BORDER2
 70
0
  3
Border (.5x) __.__.__.__.__.__.__.__.__.__.__.
 72
65
 73
6
 40
22.2250000000000014
 49
6.3499999999999996
 74
0
 49
-3.1749999999999998
 74
0
 49
6.3499999999999996
 74
0
 49
-3.1749999999999998
 74
0
 49
0.0
 74
0
 49
-3.1749999999999998
 74
0
  0
LTYPE
  5
42
100
AcDbSymbolTableRecord
100
AcDbLinetypeTableRecord
  2
BORDERX2
 70
0
  3
Border (2x) ____  ____  .  ____  ____  .  ___
 72
65
 73
6
 40
88.9000000000000057
 49
25.3999999999999986
 74
0
 49
-12.6999999999999993
 74
0
 49
25.3999999999999986
 74
0
 49
-12.6999999999999993
 74
0
 49
0.0
 74
0
 49
-12.6999999999999993
 74
0
  0
ENDTAB
  0
TABLE
  2
LAYER
  5
2
100
AcDbSymbolTable
 70
7
  0
LAYER
  5
10
100
AcDbSymbolTableRecord
100
AcDbLayerTableRecord
  2
0
 70
0
 62
7
  6
CONTINUOUS
370
0
390
F
  0
LAYER
  5
43
100
AcDbSymbolTableRecord
100
AcDbLayerTableRecord
  2
mark
 70
0
 62
56
  6
CONTINUOUS
370
0
390
F
  0
LAYER
  5
44
100
AcDbSymbolTableRecord
100
AcDbLayerTableRecord
  2
motor
 70
0
 62
5
  6
CONTINUOUS
370
0
390
F
  0
LAYER
  5
45
100
AcDbSymbolTableRecord
100
AcDbLayerTableRecord
  2
case
 70
0
 62
7
  6
CONTINUOUS
370
0
390
F
  0
LAYER
  5
46
100
AcDbSymbolTableRecord
100
AcDbLayerTableRecord
  2
filter
 70
0
 62
6
  6
CONTINUOUS
370
0
390
F
  0
LAYER
  5
47
100
AcDbSymbolTableRecord
100
AcDbLayerTableRecord
  2
power_adaptor
 70
1
 62
7
  6
CONTINUOUS
370
0
390
F
  0
LAYER
  5
48
100
AcDbSymbolTableRecord
100
AcDbLayerTableRecord
  2
shield
 70
0
 62
4
  6
CONTINUOUS
370
0
390
F
  0
ENDTAB
  0
TABLE
  2
STYLE
  5
3
100
AcDbSymbolTable
 70
1
  0
STYLE
  5
11
100
AcDbSymbolTableRecord
100
AcDbTextStyleTableRecord
  2
Standard
 70
0
 40
0.0
 41
0.75
 50
0.0
 71
0
 42
2.5
  3
txt
  4

  0
ENDTAB
  0
TABLE
  2
VIEW
  5
6
100
AcDbSymbolTable
 70
0
  0
ENDTAB
  0
TABLE
  2
UCS
  5
7
100
AcDbSymbolTable
 70
0
  0
ENDTAB
  0
TABLE
  2
APPID
  5
9
100
AcDbSymbolTable
 70
1
  0
APPID
  5
12
100
AcDbSymbolTableRecord
100
AcDbRegAppTableRecord
  2
ACAD
 70
0
  0
ENDTAB
  0
TABLE
  2
DIMSTYLE
  5
A
100
AcDbSymbolTable
 70
1
100
AcDbDimStyleTable
 71
0
  0
DIMSTYLE
105
27
100
AcDbSymbolTableRecord
100
AcDbDimStyleTableRecord
  2
Standard
 41
10.0
 42
5.0
 43
3.75
 44
10.0
 70
0
 73
0
 74
0
 77
1
 78
8
140
15.0
141
2.5
143
0.03937007874016
147
10.0
171
3
172
1
271
2
272
2
274
3
278
44
283
0
284
8
340
11
  0
ENDTAB
  0
TABLE
  2
BLOCK_RECORD
  5
1
100
AcDbSymbolTable
 70
1
  0
BLOCK_RECORD
  5
1F
100
AcDbSymbolTableRecord
100
AcDbBlockTableRecord
  2
*Model_Space
340
22
  0
BLOCK_RECORD
  5
1B
100
AcDbSymbolTableRecord
100
AcDbBlockTableRecord
  2
*Paper_Space
340
1E
  0
BLOCK_RECORD
  5
23
100
AcDbSymbolTableRecord
100
AcDbBlockTableRecord
  2
*Paper_Space0
340
26
  0
BLOCK_RECORD
  5
49
100
AcDbSymbolTableRecord
100
AcDbBlockTableRecord
  2
motor
340
0
  0
BLOCK_RECORD
  5
4A
100
AcDbSymbolTableRecord
100
AcDbBlockTableRecord
  2
filter_503
340
0
  0
BLOCK_RECORD
  5
4B
100
AcDbSymbolTableRecord
100
AcDbBlockTableRecord
  2
power_adaptor
340
0
  0
ENDTAB
  0
ENDSEC
  0
SECTION
  2
BLOCKS
  0
BLOCK
  5
20
100
AcDbEntity
  8
0
100
AcDbBlockBegin
  2
*Model_Space
 70
0
 10
0.0
 20
0.0
 30
0.0
  3
*Model_Space
  1

  0
ENDBLK
  5
21
100
AcDbEntity
  8
0
100
AcDbBlockEnd
  0
BLOCK
  5
1C
100
AcDbEntity
 67
1
  8
0
100
AcDbBlockBegin
  2
*Paper_Space
 70
0
 10
0.0
 20
0.0
 30
0.0
  3
*Paper_Space
  1

  0
ENDBLK
  5
1D
100
AcDbEntity
 67
1
  8
0
100
AcDbBlockEnd
  0
BLOCK
  5
24
100
AcDbEntity
  8
0
100
AcDbBlockBegin
  2
*Paper_Space0
 70
0
 10
0.0
 20
0.0
 30
0.0
  3
*Paper_Space0
  1

  0
ENDBLK
  5
25
100
AcDbEntity
  8
0
100
AcDbBlockEnd
  0
BLOCK
  5
4C
100
AcDbEntity
  8
0
100
AcDbBlockBegin
  2
motor
 70
0
 10
0.0
 20
0.0
 30
0.0
  3
motor
  1

  0
ARC
  5
4D
100
AcDbEntity
  8
motor
 62
256
370
-1
  6
ByLayer
100
AcDbCircle
 10
0.0
 20
0.0
 30
0.0
 40
79.0
100
AcDbArc
 50
0.000000000000458
 51
90.0
  0
ARC
  5
4E
100
AcDbEntity
  8
motor
 62
256
370
-1
  6
ByLayer
100
AcDbCircle
 10
-2.4999999999999867
 20
-2.4999999999999991
 30
0.0
 40
81.5383345427167825
100
AcDbArc
 50
271.756988309908138
 51
1.756988309908659
  0
LINE
  5
4F
100
AcDbEntity
100
AcDbLine
  8
motor
 62
256
370
-1
  6
ByLayer
 10
-101.0
 20
87.0
 30
0.0
 11
-101.0
 21
0.0000000000000124
 31
0.0
  0
LINE
  5
50
100
AcDbEntity
100
AcDbLine
  8
motor
 62
256
370
-1
  6
ByLayer
 10
-101.0299999999999869
 20
-0.0100000000000274
 30
0.0
 11
-101.0299999999999869
 21
-0.0100000000000274
 31
0.0
  0
ARC
  5
51
100
AcDbEntity
  8
motor
 62
256
370
-1
  6
ByLayer
100
AcDbCircle
 10
-4.356317901536686
 20
13.4822844279142604
 30
0.0
 40
97.5795741072076197
100
AcDbArc
 50
187.9417966872381669
 51
272.5587487722280571
  0
LINE
  5
52
100
AcDbEntity
100
AcDbLine
  8
motor
 62
256
370
-1
  6
ByLayer
 10
-101.0
 20
87.0
 30
0.0
 11
-29.9999999999999893
 21
87.0000000000000142
 31
0.0
  0
LINE
  5
53
100
AcDbEntity
100
AcDbLine
  8
motor
 62
256
370
-1
  6
ByLayer
 10
-29.9999999999999893
 20
87.0000000000000142
 30
0.0
 11
-30.0000000000000249
 21
74.5587017054347569
 31
0.0
  0
ARC
  5
54
100
AcDbEntity
  8
motor
 62
256
370
-1
  6
ByLayer
100
AcDbCircle
 10
0.0
 20
0.0
 30
0.0
 40
79.0
100
AcDbArc
 50
90.0
 51
111.2538091853596995
  0
ARC
  5
55
100
AcDbEntity
  8
motor
 62
256
370
-1
  6
ByLayer
100
AcDbCircle
 10
-29.0000000000000142
 20
74.5587017054347569
 30
0.0
 40
1.0
100
AcDbArc
 50
180.0
 51
291.2538091853588185
  0
CIRCLE
  5
56
100
AcDbEntity
100
AcDbCircle
  8
motor
 62
256
370
-1
  6
ByLayer
 10
-49.4974746830583214
 20
49.4974746830583285
 30
0.0
 40
1.5
  0
CIRCLE
  5
57
100
AcDbEntity
100
AcDbCircle
  8
motor
 62
256
370
-1
  6
ByLayer
 10
-49.4974746830583783
 20
-49.4974746830582788
 30
0.0
 40
1.5
  0
CIRCLE
  5
58
100
AcDbEntity
100
AcDbCircle
  8
motor
 62
256
370
-1
  6
ByLayer
 10
49.4974746830582788
 20
-49.4974746830583854
 30
0.0
 40
1.5
  0
CIRCLE
  5
59
100
AcDbEntity
100
AcDbCircle
  8
motor
 62
256
370
-1
  6
ByLayer
 10
49.4974746830583356
 20
49.4974746830583143
 30
0.0
 40
1.5
  0
CIRCLE
  5
5A
100
AcDbEntity
100
AcDbCircle
  8
motor
 62
256
370
-1
  6
DASHDOTX2
 10
0.0
 20
0.0
 30
0.0
 40
70.0
  0
ENDBLK
  5
5B
100
AcDbEntity
  8
0
100
AcDbBlockEnd
  0
BLOCK
  5
5C
100
AcDbEntity
  8
0
100
AcDbBlockBegin
  2
filter_503
 70
0
 10
0.0
 20
0.0
 30
0.0
  3
filter_503
  1

  0
LINE
  5
5D
100
AcDbEntity
100
AcDbLine
  8
filter
 62
256
370
-1
  6
ByLayer
 10
0.0
 20
330.0
 30
0.0
 11
0.0
 21
0.0
 31
0.0
  0
LINE
  5
5E
100
AcDbEntity
100
AcDbLine
  8
filter
 62
256
370
-1
  6
ByLayer
 10
68.0
 20
0.0
 30
0.0
 11
68.0
 21
330.0
 31
0.0
  0
LINE
  5
5F
100
AcDbEntity
100
AcDbLine
  8
filter
 62
256
370
-1
  6
ByLayer
 10
68.0
 20
330.0
 30
0.0
 11
0.0
 21
330.0
 31
0.0
  0
LINE
  5
60
100
AcDbEntity
100
AcDbLine
  8
filter
 62
256
370
-1
  6
ByLayer
 10
0.0
 20
0.0
 30
0.0
 11
68.0
 21
0.0
 31
0.0
  0
ENDBLK
  5
61
100
AcDbEntity
  8
0
100
AcDbBlockEnd
  0
BLOCK
  5
62
100
AcDbEntity
  8
0
100
AcDbBlockBegin
  2
power_adaptor
 70
0
 10
0.0
 20
0.0
 30
0.0
  3
power_adaptor
  1

  0
LINE
  5
63
100
AcDbEntity
100
AcDbLine
  8
power_adaptor
 62
1
370
-1
  6
ByLayer
 10
0.0
 20
0.0
 30
0.0
 11
160.0
 21
0.0
 31
0.0
  0
LINE
  5
64
100
AcDbEntity
100
AcDbLine
  8
power_adaptor
 62
1
370
-1
  6
ByLayer
 10
160.0
 20
100.0
 30
0.0
 11
0.0
 21
100.0
 31
0.0
  0
LINE
  5
65
100
AcDbEntity
100
AcDbLine
  8
power_adaptor
 62
1
370
-1
  6
ByLayer
 10
0.0
 20
100.0
 30
0.0
 11
0.0
 21
0.0
 31
0.0
  0
LINE
  5
66
100
AcDbEntity
100
AcDbLine
  8
power_adaptor
 62
1
370
-1
  6
ByLayer
 10
160.0
 20
0.0
 30
0.0
 11
160.0
 21
100.0
 31
0.0
  0
ENDBLK
  5
67
100
AcDbEntity
  8
0
100
AcDbBlockEnd
  0
ENDSEC
  0
SECTION
  2
ENTITIES
  0
LINE
  5
68
100
AcDbEntity
100
AcDbLine
  8
motor
 62
256
370
-1
  6
ByLayer
 10
600.0
 20
-85.0
 30
0.0
 11
682.0
 21
-85.0
 31
0.0
  0
DIMENSION
  5
69
100
AcDbEntity
  8
mark
 62
256
370
-1
  6
ByLayer
100
AcDbDimension
 10
682.0
 20
200.0
 30
0.0
 11
641.0
 21
217.5
 31
0.0
 70
1
 71
5
 72
1
 41
1.0
 42
0.0
  1

  3
Standard
100
AcDbAlignedDimension
 13
600.0
 23
85.0
 33
0.0
 14
682.0
 24
85.0
 34
0.0
  0
LINE
  5
6A
100
AcDbEntity
100
AcDbLine
  8
motor
 62
256
370
-1
  6
ByLayer
 10
600.0
 20
-70.0
 30
0.0
 11
682.0
 21
-70.0
 31
0.0
  0
LINE
  5
6B
100
AcDbEntity
100
AcDbLine
  8
motor
 62
256
370
-1
  6
ByLayer
 10
600.0
 20
70.0
 30
0.0
 11
682.0
 21
70.0
 31
0.0
  0
LINE
  5
6C
100
AcDbEntity
100
AcDbLine
  8
motor
 62
256
370
-1
  6
ByLayer
 10
600.0
 20
87.0
 30
0.0
 11
600.0
 21
-85.0
 31
0.0
  0
LINE
  5
6D
100
AcDbEntity
100
AcDbLine
  8
motor
 62
256
370
-1
  6
ByLayer
 10
682.0
 20
-85.0
 30
0.0
 11
682.0
 21
87.0000000000000142
 31
0.0
  0
LINE
  5
6E
100
AcDbEntity
100
AcDbLine
  8
motor
 62
256
370
-1
  6
ByLayer
 10
600.0
 20
87.0
 30
0.0
 11
682.0
 21
87.0
 31
0.0
  0
LINE
  5
6F
100
AcDbEntity
100
AcDbLine
  8
motor
 62
256
370
-1
  6
DOTX2
 10
659.0
 20
87.0
 30
0.0
 11
659.0
 21
-85.0
 31
0.0
  0
LINE
  5
70
100
AcDbEntity
100
AcDbLine
  8
case
 62
256
370
-1
  6
ByLayer
 10
328.0
 20
-165.0
 30
0.0
 11
328.0
 21
165.0
 31
0.0
  0
LINE
  5
71
100
AcDbEntity
100
AcDbLine
  8
case
 62
256
370
-1
  6
ByLayer
 10
700.0
 20
-165.0
 30
0.0
 11
700.0
 21
165.0
 31
0.0
  0
LINE
  5
72
100
AcDbEntity
100
AcDbLine
  8
0
 62
256
370
-1
  6
ByLayer
 10
-101.5
 20
-226.5
 30
0.0
 11
-101.5
 21
-226.5
 31
0.0
  0
LINE
  5
73
100
AcDbEntity
100
AcDbLine
  8
motor
 62
256
370
-1
  6
ByLayer
 10
159.0
 20
-0.0000000000000193
 30
0.0
 11
159.0
 21
-0.0000000000000193
 31
0.0
  0
LINE
  5
74
100
AcDbEntity
100
AcDbLine
  8
motor
 62
256
370
-1
  6
ByLayer
 10
80.0
 20
90.0
 30
0.0
 11
80.0
 21
90.0
 31
0.0
  0
LINE
  5
75
100
AcDbEntity
100
AcDbLine
  8
motor
 62
256
370
-1
  6
ByLayer
 10
162.0
 20
-0.0000000000000201
 30
0.0
 11
162.0
 21
-0.0000000000000201
 31
0.0
  0
LINE
  5
76
100
AcDbEntity
100
AcDbLine
  8
motor
 62
256
370
-1
  6
ByLayer
 10
50.0000000000000071
 20
70.0
 30
0.0
 11
50.0000000000000071
 21
70.0
 31
0.0
  0
DIMENSION
  5
77
100
AcDbEntity
  8
mark
 62
256
370
-1
  6
ByLayer
100
AcDbDimension
 10
132.5381242981493415
 20
28.9783625353850667
 30
0.0
 11
71.5479775938460278
 21
15.3236195869602287
 31
0.0
 70
3
 71
5
 72
1
 41
1.0
 42
0.0
  1

  3
Standard
100
AcDbDiametricDimension
 15
27.4618757018506443
 25
-28.9783625353850667
 35
0.0
 40
0.0
  0
CIRCLE
  5
78
100
AcDbEntity
100
AcDbCircle
  8
case
 62
256
370
-1
  6
ByLayer
 10
80.0
 20
0.0
 30
0.0
 40
60.0
  0
LINE
  5
79
100
AcDbEntity
100
AcDbLine
  8
case
 62
256
370
-1
  6
ByLayer
 10
197.5
 20
165.0
 30
0.0
 11
-37.5
 21
165.0
 31
0.0
  0
LINE
  5
7A
100
AcDbEntity
100
AcDbLine
  8
case
 62
256
370
-1
  6
ByLayer
 10
-37.5
 20
-165.0
 30
0.0
 11
197.5
 21
-165.0
 31
0.0
  0
LINE
  5
7B
100
AcDbEntity
100
AcDbLine
  8
case
 62
256
370
-1
  6
ByLayer
 10
-37.5
 20
165.0
 30
0.0
 11
-37.5
 21
-165.0
 31
0.0
  0
DIMENSION
  5
7C
100
AcDbEntity
  8
mark
 62
256
370
-1
  6
ByLayer
100
AcDbDimension
 10
197.5000000000000284
 20
-288.0000000000001705
 30
0.0
 11
80.0
 21
-270.5000000000001705
 31
0.0
 70
1
 71
5
 72
1
 41
1.0
 42
0.0
  1

  3
Standard
100
AcDbAlignedDimension
 13
-37.5
 23
-165.0000000000000853
 33
0.0
 14
197.5000000000000568
 24
-165.0000000000000853
 34
0.0
  0
LINE
  5
7D
100
AcDbEntity
100
AcDbLine
  8
case
 62
256
370
-1
  6
ByLayer
 10
197.5000000000000568
 20
-165.0000000000000284
 30
0.0
 11
197.5000000000000853
 21
165.0000000000000284
 31
0.0
  0
LINE
  5
7E
100
AcDbEntity
100
AcDbLine
  8
case
 62
256
370
-1
  6
ByLayer
 10
600.0
 20
165.0
 30
0.0
 11
600.0
 21
-165.0
 31
0.0
  0
LINE
  5
7F
100
AcDbEntity
100
AcDbLine
  8
case
 62
256
370
-1
  6
ByLayer
 10
328.0
 20
179.0
 30
0.0
 11
328.0
 21
165.0
 31
0.0
  0
LINE
  5
80
100
AcDbEntity
100
AcDbLine
  8
case
 62
256
370
-1
  6
ByLayer
 10
328.0
 20
-179.0
 30
0.0
 11
328.0
 21
-165.0
 31
0.0
  0
LINE
  5
81
100
AcDbEntity
100
AcDbLine
  8
case
 62
256
370
-1
  6
ByLayer
 10
586.0
 20
165.0
 30
0.0
 11
586.0
 21
-165.0
 31
0.0
  0
LINE
  5
82
100
AcDbEntity
100
AcDbLine
  8
case
 62
256
370
-1
  6
ByLayer
 10
600.0
 20
-60.0
 30
0.0
 11
586.0
 21
-60.0
 31
0.0
  0
LINE
  5
83
100
AcDbEntity
100
AcDbLine
  8
case
 62
256
370
-1
  6
ByLayer
 10
600.0
 20
60.0
 30
0.0
 11
586.0
 21
60.0
 31
0.0
  0
LINE
  5
84
100
AcDbEntity
100
AcDbLine
  8
case
 62
256
370
-1
  6
ByLayer
 10
714.0
 20
-165.0
 30
0.0
 11
714.0
 21
165.0
 31
0.0
  0
LINE
  5
85
100
AcDbEntity
100
AcDbLine
  8
case
 62
256
370
-1
  6
ByLayer
 10
328.0
 20
-165.0
 30
0.0
 11
714.0
 21
-165.0
 31
0.0
  0
LINE
  5
86
100
AcDbEntity
100
AcDbLine
  8
case
 62
256
370
-1
  6
ByLayer
 10
714.0
 20
165.0
 30
0.0
 11
328.0
 21
165.0
 31
0.0
  0
LINE
  5
87
100
AcDbEntity
100
AcDbLine
  8
case
 62
256
370
-1
  6
ByLayer
 10
714.0
 20
165.0
 30
0.0
 11
714.0
 21
179.0
 31
0.0
  0
LINE
  5
88
100
AcDbEntity
100
AcDbLine
  8
case
 62
256
370
-1
  6
ByLayer
 10
714.0
 20
-165.0
 30
0.0
 11
714.0
 21
-179.0
 31
0.0
  0
LINE
  5
89
100
AcDbEntity
100
AcDbLine
  8
case
 62
256
370
-1
  6
ByLayer
 10
328.0
 20
-179.0
 30
0.0
 11
714.0
 21
-179.0
 31
0.0
  0
LINE
  5
8A
100
AcDbEntity
100
AcDbLine
  8
case
 62
256
370
-1
  6
ByLayer
 10
714.0
 20
179.0
 30
0.0
 11
328.0
 21
179.0
 31
0.0
  0
DIMENSION
  5
8B
100
AcDbEntity
  8
mark
 62
256
370
-1
  6
ByLayer
100
AcDbDimension
 10
840.0
 20
179.0
 30
0.0
 11
822.5
 21
0.0000000000000021
 31
0.0
 70
0
 71
5
 72
1
 41
1.0
 42
0.0
  1

  3
Standard
100
AcDbAlignedDimension
 13
714.0
 23
-179.0
 33
0.0
 14
714.0
 24
179.0
 34
0.0
 50
90.0
100
AcDbRotatedDimension
  0
DIMENSION
  5
8C
100
AcDbEntity
  8
mark
 62
256
370
-1
  6
ByLayer
100
AcDbDimension
 10
800.0
 20
-167.0
 30
0.0
 11
782.5
 21
0.0000000000000021
 31
0.0
 70
0
 71
5
 72
1
 41
1.0
 42
0.0
  1

  3
Standard
100
AcDbAlignedDimension
 13
714.0
 23
165.0
 33
0.0
 14
712.0
 24
-165.0
 34
0.0
 50
90.0
100
AcDbRotatedDimension
  0
DIMENSION
  5
8D
100
AcDbEntity
  8
mark
 62
256
370
-1
  6
ByLayer
100
AcDbDimension
 10
700.0
 20
-230.0
 30
0.0
 11
650.0
 21
-212.5
 31
0.0
 70
0
 71
5
 72
1
 41
1.0
 42
0.0
  1

  3
Standard
100
AcDbAlignedDimension
 13
600.0
 23
-167.0
 33
0.0
 14
700.0
 24
-165.0
 34
0.0
 50
0.0
100
AcDbRotatedDimension
  0
LINE
  5
8E
100
AcDbEntity
100
AcDbLine
  8
case
 62
256
370
-1
  6
ByLayer
 10
211.4999999999999432
 20
-165.0000000000000284
 30
0.0
 11
211.4999999999999716
 21
165.0000000000000284
 31
0.0
  0
LINE
  5
8F
100
AcDbEntity
100
AcDbLine
  8
case
 62
256
370
-1
  6
ByLayer
 10
211.5
 20
179.0
 30
0.0
 11
211.5
 21
165.0
 31
0.0
  0
LINE
  5
90
100
AcDbEntity
100
AcDbLine
  8
case
 62
256
370
-1
  6
ByLayer
 10
211.5
 20
-165.0
 30
0.0
 11
211.5
 21
-179.0
 31
0.0
  0
LINE
  5
91
100
AcDbEntity
100
AcDbLine
  8
case
 62
256
370
-1
  6
ByLayer
 10
197.5000000000000853
 20
165.0000000000000284
 30
0.0
 11
211.5
 21
165.0
 31
0.0
  0
LINE
  5
92
100
AcDbEntity
100
AcDbLine
  8
case
 62
256
370
-1
  6
ByLayer
 10
197.5000000000000568
 20
-165.0000000000000284
 30
0.0
 11
211.5000000000000284
 21
-165.0
 31
0.0
  0
LINE
  5
93
100
AcDbEntity
100
AcDbLine
  8
case
 62
256
370
-1
  6
ByLayer
 10
-51.5
 20
-179.0000000000000284
 30
0.0
 11
211.5000000000000284
 21
-179.0
 31
0.0
  0
LINE
  5
94
100
AcDbEntity
100
AcDbLine
  8
case
 62
256
370
-1
  6
ByLayer
 10
-51.5000000000000071
 20
179.0000000000000284
 30
0.0
 11
-51.5000000000000071
 21
-179.0000000000000284
 31
0.0
  0
LINE
  5
95
100
AcDbEntity
100
AcDbLine
  8
case
 62
256
370
-1
  6
ByLayer
 10
-37.5
 20
-165.0
 30
0.0
 11
-51.5
 21
-165.0000000000000284
 31
0.0
  0
LINE
  5
96
100
AcDbEntity
100
AcDbLine
  8
case
 62
256
370
-1
  6
ByLayer
 10
-37.5
 20
165.0
 30
0.0
 11
-51.5
 21
165.0000000000000284
 31
0.0
  0
LINE
  5
97
100
AcDbEntity
100
AcDbLine
  8
case
 62
256
370
-1
  6
ByLayer
 10
211.5000000000000284
 20
179.0000000000000284
 30
0.0
 11
-51.5
 21
179.0000000000000284
 31
0.0
  0
DIMENSION
  5
98
100
AcDbEntity
  8
mark
 62
256
370
-1
  6
ByLayer
100
AcDbDimension
 10
209.5
 20
-330.0
 30
0.0
 11
80.0000000000000142
 21
-312.5
 31
0.0
 70
0
 71
5
 72
1
 41
1.0
 42
0.0
  1

  3
Standard
100
AcDbAlignedDimension
 13
-51.5000000000000071
 23
-179.0000000000000284
 33
0.0
 14
211.5000000000000284
 24
-179.0
 34
0.0
 50
0.0
100
AcDbRotatedDimension
  0
DIMENSION
  5
99
100
AcDbEntity
  8
mark
 62
256
370
-1
  6
ByLayer
100
AcDbDimension
 10
710.0
 20
-350.0
 30
0.0
 11
521.0
 21
-332.5
 31
0.0
 70
0
 71
5
 72
1
 41
1.0
 42
0.0
  1

  3
Standard
100
AcDbAlignedDimension
 13
328.0
 23
-179.0
 33
0.0
 14
714.0
 24
-179.0
 34
0.0
 50
0.0
100
AcDbRotatedDimension
  0
DIMENSION
  5
9A
100
AcDbEntity
  8
mark
 62
256
370
-1
  6
ByLayer
100
AcDbDimension
 10
600.0
 20
200.0
 30
0.0
 11
565.0
 21
224.0
 31
0.0
 70
0
 71
5
 72
0
 41
1.0
 42
0.0
  1

  3
Standard
100
AcDbAlignedDimension
 13
586.0
 23
165.0
 33
0.0
 14
600.0
 24
165.0
 34
0.0
 50
0.0
100
AcDbRotatedDimension
  0
LINE
  5
9B
100
AcDbEntity
100
AcDbLine
  8
case
 62
256
370
-1
  6
ByLayer
 10
342.0
 20
-165.0
 30
0.0
 11
342.0
 21
165.0
 31
0.0
  0
DIMENSION
  5
9C
100
AcDbEntity
  8
mark
 62
256
370
-1
  6
ByLayer
100
AcDbDimension
 10
197.5000000000000568
 20
-210.0
 30
0.0
 11
204.5
 21
-192.5
 31
0.0
 70
0
 71
5
 72
0
 41
1.0
 42
0.0
  1

  3
Standard
100
AcDbAlignedDimension
 13
211.4999999999999432
 23
-165.0000000000000284
 33
0.0
 14
197.5000000000000568
 24
-165.0000000000000284
 34
0.0
 50
0.0
100
AcDbRotatedDimension
  0
DIMENSION
  5
9D
100
AcDbEntity
  8
mark
 62
256
370
-1
  6
ByLayer
100
AcDbDimension
 10
-37.5
 20
-210.0
 30
0.0
 11
-90.0
 21
-190.0
 31
0.0
 70
0
 71
5
 72
0
 41
1.0
 42
0.0
  1

  3
Standard
100
AcDbAlignedDimension
 13
-51.5
 23
-165.0000000000000284
 33
0.0
 14
-37.5
 24
-165.0
 34
0.0
 50
0.0
100
AcDbRotatedDimension
  0
DIMENSION
  5
9E
100
AcDbEntity
  8
mark
 62
256
370
-1
  6
ByLayer
100
AcDbDimension
 10
260.0
 20
165.0000000000000284
 30
0.0
 11
242.5
 21
172.0
 31
0.0
 70
0
 71
5
 72
0
 41
1.0
 42
0.0
  1

  3
Standard
100
AcDbAlignedDimension
 13
211.5
 23
179.0
 33
0.0
 14
211.4999999999999716
 24
165.0000000000000284
 34
0.0
 50
90.0
100
AcDbRotatedDimension
  0
DIMENSION
  5
9F
100
AcDbEntity
  8
mark
 62
256
370
-1
  6
ByLayer
100
AcDbDimension
 10
260.0
 20
-179.0
 30
0.0
 11
290.0
 21
-200.0
 31
0.0
 70
0
 71
5
 72
0
 41
1.0
 42
0.0
  1

  3
Standard
100
AcDbAlignedDimension
 13
211.5000000000000284
 23
-165.0
 33
0.0
 14
211.5
 24
-179.0
 34
0.0
 50
90.0
100
AcDbRotatedDimension
  0
DIMENSION
  5
A0
100
AcDbEntity
  8
mark
 62
256
370
-1
  6
ByLayer
100
AcDbDimension
 10
714.0
 20
-230.0
 30
0.0
 11
707.0
 21
-212.5
 31
0.0
 70
0
 71
5
 72
0
 41
1.0
 42
0.0
  1

  3
Standard
100
AcDbAlignedDimension
 13
700.0
 23
-165.0
 33
0.0
 14
714.0
 24
-165.0
 34
0.0
 50
0.0
100
AcDbRotatedDimension
  0
DIMENSION
  5
A1
100
AcDbEntity
  8
mark
 62
256
370
-1
  6
ByLayer
100
AcDbDimension
 10
328.0
 20
-230.0
 30
0.0
 11
290.0
 21
-214.0
 31
0.0
 70
0
 71
5
 72
0
 41
1.0
 42
0.0
  1

  3
Standard
100
AcDbAlignedDimension
 13
342.0
 23
-165.0
 33
0.0
 14
328.0
 24
-165.0
 34
0.0
 50
0.0
100
AcDbRotatedDimension
  0
DIMENSION
  5
A2
100
AcDbEntity
  8
mark
 62
256
370
-1
  6
ByLayer
100
AcDbDimension
 10
760.0
 20
-179.0
 30
0.0
 11
742.5
 21
-172.0
 31
0.0
 70
0
 71
5
 72
0
 41
1.0
 42
0.0
  1

  3
Standard
100
AcDbAlignedDimension
 13
700.0
 23
-165.0
 33
0.0
 14
714.0
 24
-179.0
 34
0.0
 50
90.0
100
AcDbRotatedDimension
  0
DIMENSION
  5
A3
100
AcDbEntity
  8
mark
 62
256
370
-1
  6
ByLayer
100
AcDbDimension
 10
760.0
 20
180.0
 30
0.0
 11
742.5
 21
172.0
 31
0.0
 70
0
 71
5
 72
0
 41
1.0
 42
0.0
  1

  3
Standard
100
AcDbAlignedDimension
 13
700.0
 23
165.0
 33
0.0
 14
714.0
 24
179.0
 34
0.0
 50
90.0
100
AcDbRotatedDimension
  0
DIMENSION
  5
A4
100
AcDbEntity
  8
mark
 62
256
370
-1
  6
ByLayer
100
AcDbDimension
 10
570.0
 20
-60.0
 30
0.0
 11
552.5
 21
0.0000000000000021
 31
0.0
 70
0
 71
5
 72
0
 41
1.0
 42
0.0
  1

  3
Standard
100
AcDbAlignedDimension
 13
586.0
 23
60.0
 33
0.0
 14
586.0
 24
-60.0
 34
0.0
 50
90.0
100
AcDbRotatedDimension
  0
POINT
  5
A5
100
AcDbEntity
100
AcDbPoint
  8
mark
 62
256
370
-1
  6
ByLayer
 10
96.445440000078051
 20
-16.1740800000130918
 30
0.0
  0
POINT
  5
A6
100
AcDbEntity
100
AcDbPoint
  8
mark
 62
256
370
-1
  6
ByLayer
 10
103.0348800000833904
 20
-13.7779200000111519
 30
0.0
  0
POINT
  5
A7
100
AcDbEntity
100
AcDbPoint
  8
mark
 62
256
370
-1
  6
ByLayer
 10
109.0252800000882445
 20
-25.1596800000203622
 30
0.0
  0
DIMENSION
  5
A8
100
AcDbEntity
  8
motor
 62
256
370
-1
  6
ByLayer
100
AcDbDimension
 10
80.0
 20
0.0
 30
0.0
 11
118.2851890851730872
 21
-8.0928546701731392
 31
0.0
 70
4
 71
5
 72
1
 41
1.0
 42
0.0
  1

  3
Standard
100
AcDbRadialDimension
 15
134.7820188001384167
 25
-43.5767187404154939
 35
0.0
 40
0.0
  0
LINE
  5
A9
100
AcDbEntity
100
AcDbLine
  8
case
 62
256
370
-1
  6
ByLayer
 10
437.0
 20
165.0
 30
0.0
 11
437.0
 21
-165.0
 31
0.0
  0
INSERT
  5
AA
100
AcDbEntity
100
AcDbBlockReference
  8
filter
 62
256
370
-1
  6
ByLayer
  2
filter_503
 10
437.0
 20
-165.0
 30
0.0
 44
1.0
 45
1.0
  0
DIMENSION
  5
AB
100
AcDbEntity
  8
mark
 62
256
370
-1
  6
ByLayer
100
AcDbDimension
 10
430.0
 20
-310.0
 30
0.0
 11
568.5
 21
-292.5
 31
0.0
 70
0
 71
5
 72
1
 41
1.0
 42
0.0
  1

  3
Standard
100
AcDbAlignedDimension
 13
700.0
 23
-167.0
 33
0.0
 14
437.0
 24
-165.0
 34
0.0
 50
0.0
100
AcDbRotatedDimension
  0
DIMENSION
  5
AC
100
AcDbEntity
  8
mark
 62
256
370
-1
  6
ByLayer
100
AcDbDimension
 10
600.0
 20
-270.0
 30
0.0
 11
518.5
 21
-252.5
 31
0.0
 70
0
 71
5
 72
0
 41
1.0
 42
0.0
  1

  3
Standard
100
AcDbAlignedDimension
 13
437.0
 23
-165.0
 33
0.0
 14
600.0
 24
-165.0
 34
0.0
 50
0.0
100
AcDbRotatedDimension
  0
DIMENSION
  5
AD
100
AcDbEntity
  8
mark
 62
256
370
-1
  6
ByLayer
100
AcDbDimension
 10
322.0
 20
-230.0
 30
0.0
 11
389.5
 21
-212.5
 31
0.0
 70
0
 71
5
 72
1
 41
1.0
 42
0.0
  1

  3
Standard
100
AcDbAlignedDimension
 13
437.0
 23
-165.0
 33
0.0
 14
342.0
 24
-165.0
 34
0.0
 50
0.0
100
AcDbRotatedDimension
  0
DIMENSION
  5
AE
100
AcDbEntity
  8
mark
 62
256
370
-1
  6
ByLayer
100
AcDbDimension
 10
500.0
 20
-230.0
 30
0.0
 11
471.0
 21
-212.5
 31
0.0
 70
0
 71
5
 72
1
 41
1.0
 42
0.0
  1

  3
Standard
100
AcDbAlignedDimension
 13
437.0
 23
-165.0
 33
0.0
 14
505.0
 24
-165.0
 34
0.0
 50
0.0
100
AcDbRotatedDimension
  0
DIMENSION
  5
AF
100
AcDbEntity
  8
mark
 62
256
370
-1
  6
ByLayer
100
AcDbDimension
 10
588.0
 20
-230.0
 30
0.0
 11
545.5
 21
-212.5
 31
0.0
 70
0
 71
5
 72
1
 41
1.0
 42
0.0
  1

  3
Standard
100
AcDbAlignedDimension
 13
505.0
 23
-165.0
 33
0.0
 14
586.0
 24
-165.0
 34
0.0
 50
0.0
100
AcDbRotatedDimension
  0
LINE
  5
B0
100
AcDbEntity
100
AcDbLine
  8
case
 62
256
370
-1
  6
ByLayer
 10
197.5
 20
35.0
 30
0.0
 11
211.5
 21
35.0
 31
0.0
  0
DIMENSION
  5
B1
100
AcDbEntity
  8
mark
 62
256
370
-1
  6
ByLayer
100
AcDbDimension
 10
260.0
 20
-160.0
 30
0.0
 11
242.5
 21
-65.0
 31
0.0
 70
0
 71
5
 72
0
 41
1.0
 42
0.0
  1

  3
Standard
100
AcDbAlignedDimension
 13
211.5
 23
35.0
 33
0.0
 14
211.5000000000000284
 24
-165.0
 34
0.0
 50
90.0
100
AcDbRotatedDimension
  0
LINE
  5
B2
100
AcDbEntity
100
AcDbLine
  8
case
 62
256
370
-1
  6
ByLayer
 10
600.0
 20
35.0
 30
0.0
 11
700.0
 21
35.0
 31
0.0
  0
DIMENSION
  5
B3
100
AcDbEntity
  8
mark
 62
256
370
-1
  6
ByLayer
100
AcDbDimension
 10
760.0
 20
-167.0
 30
0.0
 11
742.5
 21
-65.0
 31
0.0
 70
0
 71
5
 72
1
 41
1.0
 42
0.0
  1

  3
Standard
100
AcDbAlignedDimension
 13
700.0
 23
35.0
 33
0.0
 14
714.0
 24
-165.0
 34
0.0
 50
90.0
100
AcDbRotatedDimension
  0
DIMENSION
  5
B4
100
AcDbEntity
  8
mark
 62
256
370
-1
  6
ByLayer
100
AcDbDimension
 10
760.0
 20
38.9999999999999929
 30
0.0
 11
742.5
 21
100.0
 31
0.0
 70
0
 71
5
 72
0
 41
1.0
 42
0.0
  1

  3
Standard
100
AcDbAlignedDimension
 13
700.0
 23
165.0
 33
0.0
 14
700.0
 24
35.0
 34
0.0
 50
90.0
100
AcDbRotatedDimension
  0
INSERT
  5
B5
100
AcDbEntity
100
AcDbBlockReference
  8
motor
 62
256
370
-1
  6
ByLayer
  2
motor
 10
80.0
 20
0.0
 30
0.0
 50
280.0
  0
INSERT
  5
B6
100
AcDbEntity
100
AcDbBlockReference
  8
power_adaptor
 62
256
370
-1
  6
ByLayer
  2
power_adaptor
 10
-28.0000000000000071
 20
63.0
 30
0.0
 50
360.0
  0
DIMENSION
  5
B7
100
AcDbEntity
  8
power_adaptor
 62
256
370
-1
  6
ByLayer
100
AcDbDimension
 10
-60.0
 20
-128.0
 30
0.0
 11
-77.4999999999999858
 21
113.0
 31
0.0
 70
0
 71
5
 72
1
 41
1.0
 42
0.0
  1

  3
Standard
100
AcDbAlignedDimension
 13
-28.0000000000000071
 23
63.0
 33
0.0
 14
-27.9999999999999751
 24
163.0
 34
0.0
 50
90.0
100
AcDbRotatedDimension
  0
DIMENSION
  5
B8
100
AcDbEntity
  8
power_adaptor
 62
256
370
-1
  6
ByLayer
100
AcDbDimension
 10
119.0
 20
192.5
 30
0.0
 11
52.0000000000000711
 21
210.0
 31
0.0
 70
0
 71
5
 72
1
 41
1.0
 42
0.0
  1

  3
Standard
100
AcDbAlignedDimension
 13
-27.9999999999999751
 23
163.0
 33
0.0
 14
132.0000000000000853
 24
162.9999999999998863
 34
0.0
 50
0.0
100
AcDbRotatedDimension
  0
MTEXT
  5
B9
100
AcDbEntity
100
AcDbMText
  8
mark
 62
256
370
-1
  6
ByLayer
 10
900.0
 20
110.0
 30
0.0
 40
10.0
 41
100.0
 71
1
 72
2
  3
BOARD TYPES:\PA: 386*263*14 (2 pieces)\PB: 330*263*14 (3 pieces)\PC: 330*163*14 (1 piece)\PD: 330*235*14 (1 piece)\PE: 200*100*14 (1 piece)\P\PNOTES:\PUnits in milimeter;\PBoard thicknesss: 14mm;\PCut a big circle(\U+00f8120mm)\Pin the center of D\P\
  1
PDESIGNED BY:\Ptrees_peng, 2014-1\PQQ: 46549391
  7
unicode
 50
0.0
 73
0
 44
1.0
  0
CIRCLE
  5
BA
100
AcDbEntity
100
AcDbCircle
  8
case
 62
256
370
-1
  6
ByLayer
 10
205.0
 20
130.0
 30
0.0
 40
4.5
  0
CIRCLE
  5
BB
100
AcDbEntity
100
AcDbCircle
  8
case
 62
256
370
-1
  6
ByLayer
 10
205.0
 20
100.0
 30
0.0
 40
4.5
  0
CIRCLE
  5
BC
100
AcDbEntity
100
AcDbCircle
  8
case
 62
256
370
-1
  6
ByLayer
 10
205.0
 20
70.0
 30
0.0
 40
4.5
  0
DIMENSION
  5
BD
100
AcDbEntity
  8
mark
 62
256
370
-1
  6
ByLayer
100
AcDbDimension
 10
202.9875388202501938
 20
125.9750776405003734
 30
0.0
 11
189.3475241575014536
 21
137.8262379212492306
 31
0.0
 70
3
 71
5
 72
1
 41
1.0
 42
0.0
  1

  3
Standard
100
AcDbDiametricDimension
 15
207.0124611797498062
 25
134.0249223594996408
 35
0.0
 40
0.0
  0
DIMENSION
  5
BE
100
AcDbEntity
  8
mark
 62
256
370
-1
  6
ByLayer
100
AcDbDimension
 10
260.0
 20
100.0
 30
0.0
 11
242.5
 21
85.0
 31
0.0
 70
0
 71
5
 72
0
 41
1.0
 42
0.0
  1

  3
Standard
100
AcDbAlignedDimension
 13
205.0
 23
70.0
 33
0.0
 14
205.0
 24
100.0
 34
0.0
 50
90.0
100
AcDbRotatedDimension
  0
DIMENSION
  5
BF
100
AcDbEntity
  8
mark
 62
256
370
-1
  6
ByLayer
100
AcDbDimension
 10
260.0
 20
165.0000000000000284
 30
0.0
 11
242.5
 21
147.5
 31
0.0
 70
0
 71
5
 72
1
 41
1.0
 42
0.0
  1

  3
Standard
100
AcDbAlignedDimension
 13
206.0
 23
130.0
 33
0.0
 14
211.5
 24
165.0000000000000284
 34
0.0
 50
90.0
100
AcDbRotatedDimension
  0
DIMENSION
  5
C0
100
AcDbEntity
  8
mark
 62
256
370
-1
  6
ByLayer
100
AcDbDimension
 10
260.0
 20
34.9999999999999929
 30
0.0
 11
242.5
 21
52.5
 31
0.0
 70
0
 71
5
 72
1
 41
1.0
 42
0.0
  1

  3
Standard
100
AcDbAlignedDimension
 13
210.0
 23
70.0
 33
0.0
 14
211.5
 24
35.0
 34
0.0
 50
90.0
100
AcDbRotatedDimension
  0
DIMENSION
  5
C1
100
AcDbEntity
  8
mark
 62
256
370
-1
  6
ByLayer
100
AcDbDimension
 10
260.0
 20
130.0
 30
0.0
 11
242.5
 21
115.0
 31
0.0
 70
0
 71
5
 72
1
 41
1.0
 42
0.0
  1

  3
Standard
100
AcDbAlignedDimension
 13
205.0
 23
100.0
 33
0.0
 14
205.0
 24
130.0
 34
0.0
 50
90.0
100
AcDbRotatedDimension
  0
ENDSEC
  0
SECTION
  2
OBJECTS
  0
DICTIONARY
  5
C
100
AcDbDictionary
280
0
281
1
  3
ACAD_GROUP
350
D
  3
ACAD_LAYOUT
350
1A
  3
ACAD_MLINESTYLE
350
17
  3
ACAD_PLOTSETTINGS
350
19
  3
ACAD_PLOTSTYLENAME
350
E
  3
AcDbVariableDictionary
350
C2
  0
DICTIONARY
  5
D
100
AcDbDictionary
280
0
281
1
  0
ACDBDICTIONARYWDFLT
  5
E
100
AcDbDictionary
281
1
  3
Normal
350
F
100
AcDbDictionaryWithDefault
340
F
  0
ACDBPLACEHOLDER
  5
F
  0
DICTIONARY
  5
17
100
AcDbDictionary
280
0
281
1
  3
Standard
350
18
  0
MLINESTYLE
  5
18
100
AcDbMlineStyle
  2
STANDARD
 70
0
  3

 62
256
 51
90.0
 52
90.0
 71
2
 49
0.5
 62
256
  6
BYLAYER
 49
-0.5
 62
256
  6
BYLAYER
  0
DICTIONARY
  5
19
100
AcDbDictionary
280
0
281
1
  0
DICTIONARY
  5
1A
100
AcDbDictionary
281
1
  3
Layout1
350
1E
  3
Layout2
350
26
  3
Model
350
22
  0
LAYOUT
  5
1E
100
AcDbPlotSettings
  1

  2
C:\Program Files\AutoCAD 2002\plotters\DWF ePlot (optimized for plotting).pc3
  4

  6

 40
0.0
 41
0.0
 42
0.0
 43
0.0
 44
0.0
 45
0.0
 46
0.0
 47
0.0
 48
0.0
 49
0.0
140
0.0
141
0.0
142
1.0
143
1.0
 70
688
 72
0
 73
0
 74
5
  7

 75
16
147
1.0
148
0.0
149
0.0
100
AcDbLayout
  1
Layout1
 70
1
 71
1
 10
0.0
 20
0.0
 11
420.0
 21
297.0
 12
0.0
 22
0.0
 32
0.0
 14
100000000000000000000.0
 24
100000000000000000000.0
 34
100000000000000000000.0
 15
-100000000000000000000.0
 25
-100000000000000000000.0
 35
-100000000000000000000.0
146
0.0
 13
0.0
 23
0.0
 33
0.0
 16
1.0
 26
0.0
 36
0.0
 17
0.0
 27
1.0
 37
0.0
 76
0
330
1B
  0
LAYOUT
  5
22
100
AcDbPlotSettings
  1

  2
C:\Program Files\AutoCAD 2002\plotters\DWF ePlot (optimized for plotting).pc3
  4

  6

 40
0.0
 41
0.0
 42
0.0
 43
0.0
 44
0.0
 45
0.0
 46
0.0
 47
0.0
 48
0.0
 49
0.0
140
0.0
141
0.0
142
1.0
143
1.0
 70
1712
 72
0
 73
0
 74
0
  7

 75
0
147
1.0
148
0.0
149
0.0
100
AcDbLayout
  1
Model
 70
1
 71
0
 10
0.0
 20
0.0
 11
12.0
 21
9.0
 12
0.0
 22
0.0
 32
0.0
 14
0.0
 24
0.0
 34
0.0
 15
0.0
 25
0.0
 35
0.0
146
0.0
 13
0.0
 23
0.0
 33
0.0
 16
1.0
 26
0.0
 36
0.0
 17
0.0
 27
1.0
 37
0.0
 76
0
330
1F
  0
LAYOUT
  5
26
100
AcDbPlotSettings
  1

  2
C:\Program Files\AutoCAD 2002\plotters\DWF ePlot (optimized for plotting).pc3
  4

  6

 40
0.0
 41
0.0
 42
0.0
 43
0.0
 44
0.0
 45
0.0
 46
0.0
 47
0.0
 48
0.0
 49
0.0
140
0.0
141
0.0
142
1.0
143
1.0
 70
688
 72
0
 73
0
 74
5
  7

 75
16
147
1.0
148
0.0
149
0.0
100
AcDbLayout
  1
Layout2
 70
1
 71
2
 10
0.0
 20
0.0
 11
12.0
 21
9.0
 12
0.0
 22
0.0
 32
0.0
 14
0.0
 24
0.0
 34
0.0
 15
0.0
 25
0.0
 35
0.0
146
0.0
 13
0.0
 23
0.0
 33
0.0
 16
1.0
 26
0.0
 36
0.0
 17
0.0
 27
1.0
 37
0.0
 76
0
330
23
  0
DICTIONARY
  5
C2
100
AcDbDictionary
281
1
  3
DIMASSOC
350
C4
  3
HIDETEXT
350
C3
  0
DICTIONARYVAR
  5
C3
100
DictionaryVariables
280
0
  1
2
  0
DICTIONARYVAR
  5
C4
100
DictionaryVariables
280
0
  1
1
  0
ENDSEC
  0
EOF
